<?xml version="1.0" standalone="no"?>
<!DOCTYPE svg PUBLIC "-//W3C//DTD SVG 20010904//EN"
 "http://www.w3.org/TR/2001/REC-SVG-20010904/DTD/svg10.dtd">
<svg version="1.0" xmlns="http://www.w3.org/2000/svg"
 width="500.000000pt" height="500.000000pt" viewBox="0 0 500.000000 500.000000"
 preserveAspectRatio="xMidYMid meet">
<metadata>
Created by potrace 1.11, written by Peter Selinger 2001-2013
</metadata>
<g transform="translate(0.000000,500.000000) scale(0.100000,-0.100000)"
fill="#000000" stroke="none">
<path d="M2200 4989 c-430 -51 -858 -223 -1210 -485 -132 -98 -392 -358 -490
-489 -244 -325 -403 -699 -477 -1120 -25 -145 -25 -655 0 -800 74 -421 233
-795 477 -1120 96 -129 356 -389 485 -485 324 -243 717 -410 1115 -475 134
-21 676 -21 810 0 398 65 791 232 1115 475 129 96 389 356 485 485 243 324
410 717 475 1115 21 134 21 676 0 810 -65 398 -232 791 -475 1115 -96 129
-356 389 -485 485 -323 243 -701 404 -1115 476 -111 19 -587 28 -710 13z"/>
</g>
</svg>
